<?xml version="1.0" encoding="UTF-8"?>
<svg id="Capa_2" data-name="Capa 2" xmlns="http://www.w3.org/2000/svg" viewBox="0 0 307.32 147.68">
  <defs>
    <style>
      .cls-1 {
        fill: #fff;
      }

      .cls-2 {
        fill: none;
        stroke: #f7f6f6;
        stroke-miterlimit: 10;
        stroke-width: .5px;
      }
    </style>
  </defs>
  <g id="Capa_1-2" data-name="Capa 1">
    <g>
      <path class="cls-1" d="M46.81,112.64h-14.03l-5.67,12.75h-2.01l15.42-34.65h1.08l14.85,34.65h-4.17l-5.46-12.75ZM46.02,110.8l-6.09-14.22-6.33,14.22h12.42Z"/>
      <path class="cls-1" d="M74.49,124.86c3.79,0,8.33-1.91,8.33-6.88,0-6.26-6.6-7.52-8.61-8.53-3.46-1.75-8.67-3-8.67-9.75s5.97-9.33,10.27-9.33,7.6,2.02,7.6,2.02v1.84s-2.94-2.02-7.58-2.02c-4.06,0-7.3,2.23-7.3,6.06s2.46,5.71,6.51,7.52c3.44,1.54,10.87,2.99,10.87,10.87,0,6-5.56,10.05-11.42,10.05s-9.15-2.64-9.15-2.64v-1.84c1.91,1.47,4.54,2.64,9.15,2.64Z"/>
      <path class="cls-1" d="M119.31,93.23h-10.47v32.15h-3.87v-32.15h-10.47v-1.84h24.82v1.84Z"/>
      <path class="cls-1" d="M148.87,125.38l-12.18-15.35h-2.86v15.35h-3.87v-33.99h10.28c2.77,0,10.87,1.02,10.87,8.49,0,6.84-5.79,9.08-9.8,9.81l12.46,15.69h-4.89ZM133.83,108.2h2.97c6.34,0,10.24-1.66,10.24-7.72s-3.29-7.25-8.85-7.25h-4.35v14.97Z"/>
      <path class="cls-1" d="M184.61,112.64h-14.03l-5.67,12.75h-2.01l15.42-34.65h1.08l14.85,34.65h-4.17l-5.46-12.75ZM183.82,110.8l-6.09-14.22-6.33,14.22h12.42Z"/>
      <path class="cls-1" d="M225.79,99.88c0,9.75-11.76,10.15-13.37,10.15h-3.9v15.35h-3.87v-33.99h10.28c2.77,0,10.87,1.02,10.87,8.49ZM221.72,100.48c0-5.93-3.29-7.25-8.85-7.25h-4.35v14.97h2.97c6.34,0,10.24-1.66,10.24-7.72Z"/>
      <path class="cls-1" d="M236.5,91.39h3.87v33.99h-3.87v-33.99Z"/>
      <path class="cls-1" d="M272.6,112.64h-14.03l-5.67,12.75h-2.01l15.42-34.65h1.08l14.85,34.65h-4.17l-5.46-12.75ZM271.81,110.8l-6.09-14.22-6.33,14.22h12.42Z"/>
      <path class="cls-1" d="M86.69,146.61c-.24.34-.61.6-1.11.79-.5.19-1.07.28-1.69.28s-1.19-.15-1.69-.45-.87-.73-1.14-1.29-.41-1.19-.41-1.91v-1.02c0-1.12.28-2,.85-2.65.57-.65,1.33-.97,2.28-.97.83,0,1.5.21,2.01.64.51.42.81,1.01.9,1.75h-.68c-.1-.59-.34-1.04-.72-1.35-.38-.31-.88-.46-1.5-.46-.75,0-1.35.27-1.79.8-.44.54-.66,1.29-.66,2.27v.95c0,.61.1,1.16.31,1.63.21.47.51.84.9,1.1.39.26.84.39,1.35.39.59,0,1.09-.09,1.51-.28.27-.12.48-.26.61-.43v-2.09h-2.17v-.58h2.85v2.87Z"/>
      <path class="cls-1" d="M90.46,146.99h3.99v.58h-4.67v-8.07h.69v7.5Z"/>
      <path class="cls-1" d="M101.37,145.3h-3.67l-.83,2.27h-.72l3.06-8.07h.65l3.06,8.07h-.71l-.84-2.27ZM97.92,144.72h3.24l-1.62-4.4-1.62,4.4Z"/>
      <path class="cls-1" d="M106.16,139.49l2.98,7.13,2.99-7.13h.91v8.07h-.68v-3.52l.06-3.6-3.01,7.12h-.53l-2.99-7.09.06,3.55v3.54h-.68v-8.07h.9Z"/>
      <path class="cls-1" d="M116.91,144.28v3.29h-.68v-8.07h2.75c.84,0,1.5.21,1.99.64.49.43.73,1.02.73,1.77s-.23,1.34-.7,1.76c-.47.41-1.15.62-2.03.62h-2.05ZM116.91,143.7h2.07c.66,0,1.17-.16,1.51-.47.35-.31.52-.75.52-1.32s-.17-1-.52-1.34c-.35-.33-.84-.5-1.47-.51h-2.11v3.63Z"/>
      <path class="cls-1" d="M125.2,147.57h-.68v-8.07h.68v8.07Z"/>
      <path class="cls-1" d="M134.55,147.57h-.68l-4.64-6.91v6.91h-.69v-8.07h.69l4.65,6.92v-6.92h.68v8.07Z"/>
      <path class="cls-1" d="M143.57,146.61c-.24.34-.61.6-1.11.79-.5.19-1.07.28-1.69.28s-1.19-.15-1.69-.45-.87-.73-1.14-1.29-.41-1.19-.41-1.91v-1.02c0-1.12.28-2,.85-2.65.57-.65,1.33-.97,2.28-.97.83,0,1.5.21,2.01.64.51.42.81,1.01.9,1.75h-.68c-.1-.59-.34-1.04-.72-1.35-.38-.31-.88-.46-1.5-.46-.75,0-1.35.27-1.79.8-.44.54-.66,1.29-.66,2.27v.95c0,.61.1,1.16.31,1.63.21.47.51.84.9,1.1.39.26.84.39,1.35.39.59,0,1.09-.09,1.51-.28.27-.12.48-.26.61-.43v-2.09h-2.17v-.58h2.85v2.87Z"/>
      <path class="cls-1" d="M155.02,143.7h-3.78v3.29h4.34v.58h-5.02v-8.07h5v.58h-4.31v3.05h3.78v.58Z"/>
      <path class="cls-1" d="M160.63,142.91l2.27-3.42h.81l-2.67,3.98,2.76,4.09h-.82l-2.35-3.53-2.36,3.53h-.81l2.76-4.09-2.68-3.98h.82l2.27,3.42Z"/>
      <path class="cls-1" d="M166.95,144.28v3.29h-.68v-8.07h2.75c.84,0,1.5.21,1.99.64.49.43.73,1.02.73,1.77s-.23,1.34-.7,1.76c-.47.41-1.15.62-2.03.62h-2.05ZM166.95,143.7h2.07c.66,0,1.17-.16,1.51-.47.35-.31.52-.75.52-1.32s-.17-1-.52-1.34c-.35-.33-.84-.5-1.47-.51h-2.11v3.63Z"/>
      <path class="cls-1" d="M178.87,143.7h-3.78v3.29h4.34v.58h-5.02v-8.07h5v.58h-4.31v3.05h3.78v.58Z"/>
      <path class="cls-1" d="M185.03,144.2h-2.35v3.37h-.69v-8.07h2.62c.86,0,1.53.21,2.02.63.48.42.73,1,.73,1.75,0,.52-.15.97-.46,1.37-.3.4-.71.67-1.22.82l2.02,3.44v.07h-.73l-1.95-3.37ZM182.69,143.62h2.09c.57,0,1.03-.16,1.38-.49.35-.33.52-.75.52-1.27,0-.57-.18-1.01-.54-1.33-.36-.31-.87-.47-1.52-.47h-1.92v3.55Z"/>
      <path class="cls-1" d="M191.21,147.57h-.68v-8.07h.68v8.07Z"/>
      <path class="cls-1" d="M199,143.7h-3.78v3.29h4.34v.58h-5.02v-8.07h5v.58h-4.31v3.05h3.78v.58Z"/>
      <path class="cls-1" d="M208.16,147.57h-.68l-4.64-6.91v6.91h-.69v-8.07h.69l4.65,6.92v-6.92h.68v8.07Z"/>
      <path class="cls-1" d="M217.08,145.05c-.09.85-.4,1.5-.91,1.95-.52.45-1.2.68-2.06.68-.6,0-1.13-.15-1.59-.45-.46-.3-.82-.72-1.07-1.27-.25-.55-.38-1.18-.38-1.88v-1.05c0-.72.13-1.35.38-1.91s.61-.98,1.08-1.28c.47-.3,1.01-.45,1.63-.45.87,0,1.55.23,2.05.7.5.47.79,1.11.87,1.94h-.69c-.17-1.37-.92-2.06-2.23-2.06-.73,0-1.32.27-1.75.82-.43.55-.65,1.3-.65,2.27v.99c0,.93.21,1.68.64,2.23.42.56,1,.83,1.72.83s1.25-.17,1.61-.51c.36-.34.59-.85.67-1.54h.69Z"/>
      <path class="cls-1" d="M224.34,143.7h-3.78v3.29h4.34v.58h-5.02v-8.07h5v.58h-4.31v3.05h3.78v.58Z"/>
      <path class="cls-1" d="M131.14,76.31l-16.52-1.59c-7.89-.76-15.46-1.34-23.39-1.65-18.47-.72-36.49.79-54.97,3.28,4.76-1.73,9.77-2.01,14.79-2.91l19.02-2.16,1.02-5.04c2.1-10.32,6.33-19.83,12.15-28.57,10.79-16.23,26.52-27.92,45.14-33.8,23.94-7.55,50.46-3.94,71.5,9.82,19.93,13.07,33.85,34.05,37.59,57.41,11.48,1.55,22.59,2.24,33.63,5.28-17.24-2.38-34.14-3.92-51.58-3.45-10.28.27-20.15,1.2-30.3,2.24l-14.48,1.28c-14.57,1.29-28.84,1.27-43.61-.15ZM153.75,22.25c6.76-6.1,13.23-11.67,20.39-17.32-13.72-3.21-27.32-3.36-40.96,0l10.3,8.38,10.27,8.95ZM151.31,22.97c-6.76-6.38-13.29-11.87-20.37-17.21-5.01,5.91-9.56,11.99-13.18,18.81l33.55-1.6ZM189.66,24.64c-3.89-7.02-8.19-12.98-13.36-18.75l-11.58,9.23-8.7,7.91,33.64,1.6ZM211.87,26.49c-7.87-7.98-16.67-13.5-26.36-17.75l-5.77-1.97c4.15,5.23,7.78,10.31,11.07,16l1.46,1.98,19.59,1.74ZM115.32,24.71c3.63-6.42,7.64-11.85,12.01-17.88-12.32,4.06-23.04,10.66-32.01,19.67l20-1.8ZM132.34,42.28l17.71-17.14-32.91,1.43,7.59,24.55,7.61-8.83ZM182.65,51.07l7.52-24.49-32.19-1.42c-.02.57.24,1.14.57,1.45l10.3,9.67c4.95,4.65,9.49,9.36,13.8,14.78ZM168.89,74.35l20.04-1.61c-1.06-6.44-3.43-12.09-6.55-17.64-2.9-4.57-6.36-8.34-10.11-12.28-6-6.08-12.14-11.8-18.61-17.61-7.75,6.84-14.9,13.7-21.81,21.11-6.95,7.46-11.59,16.21-13.41,26.43l27.03,1.9c7.91.25,15.35.16,23.44-.3ZM105.29,39.87l8.79-13.16c-6.8.44-13.27,1.1-20.07,1.98l1.04,5.47,3.61,15.76,6.63-10.05ZM212.05,35.52l1.5-6.71-20.46-2.13,7.49,11.12,8.25,12.16,3.23-14.45ZM108.75,62.08l7.84,8.25c1.33-6.38,3.67-11.76,6.79-17.26l-7.92-25.09-13.02,19.47-2.98,5.01,9.28,9.62ZM190.67,70.47l17.16-18.06-1.09-2.06-15.08-22.4-3.66,12.07-4.04,13.19c3.42,5.44,5.26,11.11,6.7,17.26ZM97.14,52.03l-1.71-8.22-3.22-13.71c-9.94,11.09-16.8,24.46-19.49,39.47,5.56-3.15,10.28-6.73,15.19-10.31l9.22-7.23ZM234.78,69.52c-1.99-11.68-6.62-21.54-12.73-30.76l-6.83-8.65-4.85,21.96c6.45,5.26,12.81,10.11,19.61,14.64,1.61,1.07,3.24,2.08,4.79,2.82ZM100.29,71.01l15.21,1.21-17.27-18.39-13.48,10.1-9.93,6.85c8.79-.35,16.79-.45,25.47.24ZM203.38,71.31c9.79-.86,19.11-.8,28.88-.72-8.22-5.79-15.61-10.8-22.95-16.77l-13.3,13.74-4.24,4.78,11.6-1.03Z"/>
      <path class="cls-1" d="M29.89,53.43c-1.84-.91-4.17-1-6.31-.24l-8.47,3.03c-4.88,1.74-9.92,2.8-15.12,2.61,6.08-1.34,11.62-3.09,17.17-5.61,2.39-1.08,4.66-2.04,7.18-2.83,3.85-1.21,7.05,1.56,8.04,1.06,2.33-1.17,4.78-2.93,7.03-4.41l6.4-4.19c2.83-1.85,5.89-1.34,8.71.51,5.33,3.51,10.87,6.46,16.91,8.76,0,.8-.84,1.17-1.64,1.03-3.7-.65-7.15-1.94-10.41-3.84l-6.85-4.01c-1.72-1.01-3.55-1.25-5.28-.14l-10.86,6.95c-2.7,1.73-5.53,3.17-8.87,2.62.66-.48,1.29-.76,2.38-1.29Z"/>
      <path class="cls-1" d="M278.1,53.45l2.31,1.04c-4.23,1.37-9.08-2.63-12.85-5.07l-6.99-4.51c-1.61-1.04-3.53-.76-5.13.19l-6.45,3.81c-3.36,1.99-6.87,3.4-10.69,4.18-.95.2-1.74-.07-2.11-.93,5.62-2.08,10.73-4.85,15.8-8.04,3.64-2.29,6.59-3.72,10.49-1.08l9.92,6.69,3.65,1.99c2.87-1.9,6.05-2.17,9.14-.85l9.32,3.99c4.18,1.79,8.32,2.79,12.82,3.95-6.34.15-12.34-1.65-18.14-3.82l-5.31-1.99c-1.82-.68-3.68-.7-5.77.47Z"/>
      <path class="cls-1" d="M144.33,59.01c4.12,2.18,8.61,1.6,11.44-1.72,1.82-2.14,2.18-4.87,1.5-7.54-.74-2.9-2.58-5.01-5.57-6.07,6.47-1.61,12.25,3.24,12.63,9.7.21,3.47-1.05,6.69-3.48,8.86-2.56,2.28-5.85,3.18-9.35,2.52-3.16-.59-6.1-2.67-7.17-5.75Z"/>
      <line class="cls-2" x1="232.29" y1="143.26" x2="281.88" y2="143.26"/>
      <line class="cls-2" x1="23.29" y1="143.26" x2="72.88" y2="143.26"/>
      <polygon class="cls-1" points="146.43 45.97 147.98 48.96 151.26 49.72 148.27 51.28 147.5 54.55 145.95 51.56 142.67 50.8 145.66 49.25 146.43 45.97"/>
    </g>
  </g>
</svg>